<?xml version="1.0" encoding="utf-8"?>
<!-- Generator: Adobe Illustrator 22.1.0, SVG Export Plug-In . SVG Version: 6.00 Build 0)  -->
<svg version="1.1" id="Layer_1" xmlns="http://www.w3.org/2000/svg" xmlns:xlink="http://www.w3.org/1999/xlink" x="0px" y="0px"
	 viewBox="0 0 934.7 238.1" style="enable-background:new 0 0 934.7 238.1;" xml:space="preserve">
<style type="text/css">
	.st0{fill:none;}
	.st1{fill:#FFFFFF;}
</style>
<g>
	<polygon points="130.3,211.9 124.4,211.9 124.4,237.7 143.2,237.7 143.2,232.8 130.3,232.8 	"/>
	<path d="M188.4,226.1c0,2.4-0.5,4.2-1.5,5.3c-1,1.1-2.4,1.6-4.2,1.6s-3.2-0.5-4.2-1.6c-1-1.1-1.5-2.8-1.5-5.3v-14.2h-6v14.4
		c0,3.8,1,6.7,3.1,8.7c2.1,2,4.9,3,8.6,3c3.6,0,6.5-1,8.6-3c2.1-2,3.1-4.9,3.1-8.7v-14.4h-5.9V226.1z"/>
	<polygon points="247.3,211.9 240.8,211.9 235,220.3 229.1,211.9 222.3,211.9 231.4,224.6 221.9,237.7 228.7,237.7 234.8,228.7 
		241,237.7 247.9,237.7 238.3,224.4 	"/>
	<polygon points="281.1,226.9 293.1,226.9 293.1,222.3 281.1,222.3 281.1,216.7 294.6,216.7 294.6,211.9 275.2,211.9 275.2,237.7 
		295.1,237.7 295.1,232.9 281.1,232.9 	"/>
	<path d="M377.4,226.1c0,2.4-0.5,4.2-1.5,5.3c-1,1.1-2.4,1.6-4.2,1.6s-3.2-0.5-4.2-1.6c-1-1.1-1.5-2.8-1.5-5.3v-14.2h-6v14.4
		c0,3.8,1,6.7,3.1,8.7c2.1,2,4.9,3,8.6,3c3.6,0,6.5-1,8.6-3c2.1-2,3.1-4.9,3.1-8.7v-14.4h-5.9V226.1z"/>
	<polygon points="431.9,227.5 419.1,211.9 414.2,211.9 414.2,237.7 420.1,237.7 420.1,222 432.9,237.7 437.8,237.7 437.8,211.9 
		431.9,211.9 	"/>
	<polygon points="492.9,211.9 483.4,227.9 473.8,211.9 468.8,211.9 468.8,237.7 474.4,237.7 474.4,222.6 482,234.9 484.6,234.9 
		492.2,222.2 492.3,237.7 497.8,237.7 497.8,211.9 	"/>
	<path d="M537,211.9l-11.5,25.7h6.1l2.3-5.5h11.9l2.3,5.5h6.2l-11.5-25.7H537z M535.8,227.6l4.1-9.8l4.1,9.8H535.8z"/>
	<polygon points="577.9,216.8 586.1,216.8 586.1,237.7 592,237.7 592,216.8 600.3,216.8 600.3,211.9 577.9,211.9 	"/>
	<path d="M634.8,218.8c0.7-0.7,1.6-1.3,2.6-1.7s2.1-0.6,3.3-0.6c1.3,0,2.4,0.3,3.5,0.8c1.1,0.5,2.1,1.3,2.9,2.3l3.8-3.5
		c-1.2-1.5-2.7-2.6-4.5-3.4c-1.8-0.8-3.8-1.2-6-1.2c-2,0-3.9,0.3-5.5,1c-1.7,0.6-3.2,1.6-4.4,2.8s-2.2,2.6-2.9,4.2
		c-0.7,1.6-1,3.4-1,5.3c0,1.9,0.4,3.7,1,5.3c0.7,1.6,1.7,3,2.9,4.2c1.2,1.2,2.7,2.1,4.4,2.8c1.7,0.6,3.5,1,5.5,1
		c2.3,0,4.3-0.4,6.1-1.2c1.8-0.8,3.3-1.9,4.5-3.4l-3.8-3.5c-0.9,1-1.9,1.8-2.9,2.3c-1.1,0.5-2.3,0.8-3.5,0.8c-1.2,0-2.3-0.2-3.3-0.6
		c-1-0.4-1.9-1-2.6-1.7c-0.7-0.7-1.3-1.6-1.7-2.6c-0.4-1-0.6-2.1-0.6-3.3c0-1.2,0.2-2.3,0.6-3.3
		C633.5,220.5,634.1,219.6,634.8,218.8z"/>
	<polygon points="697.6,222.1 686,222.1 686,211.9 680,211.9 680,237.7 686,237.7 686,227.1 697.6,227.1 697.6,237.7 703.6,237.7 
		703.6,211.9 697.6,211.9 	"/>
	<polygon points="740.6,226.9 752.5,226.9 752.5,222.3 740.6,222.3 740.6,216.7 754.1,216.7 754.1,211.9 734.7,211.9 734.7,237.7 
		754.6,237.7 754.6,232.9 740.6,232.9 	"/>
	<path d="M803.4,213.5c-2.1-1.1-4.6-1.6-7.4-1.6h-11.7v25.7H796c2.8,0,5.3-0.5,7.4-1.6c2.1-1.1,3.8-2.6,5-4.5s1.8-4.2,1.8-6.8
		c0-2.6-0.6-4.9-1.8-6.8C807.2,216.1,805.5,214.6,803.4,213.5z M803.1,229c-0.7,1.2-1.7,2.1-2.9,2.8c-1.3,0.6-2.7,1-4.5,1h-5.4
		v-15.9h5.4c1.7,0,3.2,0.3,4.5,1c1.3,0.6,2.2,1.6,2.9,2.8c0.7,1.2,1,2.6,1,4.2C804.2,226.4,803.8,227.8,803.1,229z"/>
	<path d="M475.8,130.7l11,25.5h21.4L458.5,46h-20.1l-49.5,110.1h21.1l10.9-25.5H475.8z M448.3,66.5l20.8,48.1h-41.4L448.3,66.5z"/>
	<polygon points="609,156.1 625.8,156.1 625.8,46 605.5,46 605.5,120.6 544.8,46 528,46 528,156.1 548.2,156.1 548.2,81.6 	"/>
	<path d="M746.1,72.2c-5-8.3-12.1-14.8-21.2-19.3c-9.1-4.6-19.6-6.8-31.3-6.8h-48.1v110.1h48.1c11.7,0,22.2-2.3,31.3-6.8
		c9.1-4.6,16.2-11,21.2-19.3c3.5-5.7,5.7-12.1,6.8-19h124l10.2-19.6H752.9C751.8,84.3,749.5,78,746.1,72.2z M728.1,121
		c-3.3,5.7-8,10.1-14.2,13.2c-6.1,3.1-13.2,4.6-21.3,4.6h-26.7V63.3h26.7c8.1,0,15.2,1.5,21.3,4.6c6.1,3.1,10.9,7.5,14.2,13.2
		c3.3,5.7,5,12.3,5,19.9C733,108.6,731.4,115.3,728.1,121z"/>
	<path d="M195.7,144.9c8.5,8.5,20.3,12.8,35.5,12.8c15.2,0,27-4.3,35.5-12.8c8.4-8.5,12.7-20.8,12.7-36.7V46h-20.1v61.3
		c0,21.6-9.3,32.4-27.8,32.4c-18.7,0-28-10.8-28-32.4V46h-20.4v45.2H47.5l10.2,19.6H183C183.4,125.5,187.7,136.9,195.7,144.9z"/>
	<polygon points="413.6,0 413.6,0 413.5,0 404.6,20.4 357,128.5 309.7,20.4 305.2,10.3 300.7,0 0,0 10.6,20.4 285.7,20.4 
		285.7,20.4 345.5,156.2 367.4,156.2 426.9,20.4 426.9,20.4 924.1,20.4 934.7,0 	"/>
	<polygon points="771.4,65.7 900.5,65.7 910.7,46.1 771.4,46.1 	"/>
	<polygon points="771.4,156.1 853.4,156.1 863.6,136.5 771.4,136.5 	"/>
	<polygon points="163.3,46.1 24,46.1 34.2,65.7 163.3,65.7 	"/>
	<polygon points="163.3,156.1 163.3,136.5 71.1,136.5 81.3,156.1 	"/>
	<rect x="71.1" y="181.7" width="792.4" height="10.5"/>
</g>
</svg>
